<?xml version="1.0" encoding="utf-8"?>
<svg version="1.1" xmlns="http://www.w3.org/2000/svg" xmlns:xlink="http://www.w3.org/1999/xlink" x="0px" y="0px"
     viewBox="0 0 32 32" style="enable-background:new 0 0 32 32;" xml:space="preserve">
<style type="text/css">
    .st0{fill:#1976D2;}
    .st1{fill:#FFC107;}
    .st2{fill:#FFFFFF;}
    .st3{fill:#0D47A1;}
</style>
<g id="nexuspay_icon">
    <!-- Background Circle -->
    <circle class="st0" cx="16" cy="16" r="15"/>
    
    <!-- Currency Symbol Container -->
    <g id="currency_symbols">
        <!-- Dollar Sign -->
        <path class="st2" d="M11,14.5c0-1.4,1.1-2.5,2.5-2.5h1v-2h1.5v2h1c1.4,0,2.5,1.1,2.5,2.5c0,0.6-0.4,1-1,1s-1-0.4-1-1
            c0-0.3-0.2-0.5-0.5-0.5h-3c-0.3,0-0.5,0.2-0.5,0.5s0.2,0.5,0.5,0.5h3c1.4,0,2.5,1.1,2.5,2.5s-1.1,2.5-2.5,2.5h-1v2h-1.5v-2h-1
            c-1.4,0-2.5-1.1-2.5-2.5c0-0.6,0.4-1,1-1s1,0.4,1,1c0,0.3,0.2,0.5,0.5,0.5h3c0.3,0,0.5-0.2,0.5-0.5s-0.2-0.5-0.5-0.5h-3
            C12.1,17,11,15.9,11,14.5z"/>
    </g>
    
    <!-- Payment Card Icon -->
    <g id="card" transform="translate(5, 20)">
        <rect class="st1" x="0" y="0" width="22" height="8" rx="1" ry="1"/>
        <rect class="st3" x="0" y="2" width="22" height="2"/>
        <circle class="st2" cx="18" cy="5.5" r="1"/>
        <circle class="st2" cx="15" cy="5.5" r="1"/>
    </g>
    
    <!-- Connection Lines (Nexus) -->
    <g id="nexus_lines">
        <line class="st1" x1="8" y1="8" x2="24" y2="8" stroke-width="1" opacity="0.6"/>
        <line class="st1" x1="8" y1="24" x2="24" y2="24" stroke-width="1" opacity="0.6"/>
        <circle class="st1" cx="8" cy="8" r="2"/>
        <circle class="st1" cx="24" cy="8" r="2"/>
        <circle class="st1" cx="8" cy="24" r="2"/>
        <circle class="st1" cx="24" cy="24" r="2"/>
    </g>
    
    <!-- Shield Check (Security) -->
    <g id="shield" transform="translate(22, 2)">
        <path class="st2" d="M4,2 L4,5 C4,7.5 5.5,9 8,9 C10.5,9 12,7.5 12,5 L12,2 L8,0 L4,2 Z" 
              fill="#4CAF50" stroke="none" transform="scale(0.7)"/>
        <path class="st2" d="M6,5 L7,6 L10,3" 
              fill="none" stroke="#FFFFFF" stroke-width="1.5" stroke-linecap="round" stroke-linejoin="round" 
              transform="scale(0.7)"/>
    </g>
</g>
</svg>