<svg xmlns="http://www.w3.org/2000/svg" viewBox="0 0 120 120" width="120" height="120">
  <defs>
    <linearGradient id="grad7" x1="0%" y1="0%" x2="100%" y2="100%">
      <stop offset="0%" style="stop-color:#a18cd1;stop-opacity:1"/>
      <stop offset="100%" style="stop-color:#fbc2eb;stop-opacity:1"/>
    </linearGradient>
  </defs>
  <circle cx="60" cy="60" r="55" fill="url(#grad7)"/>
  <!-- DNA helix -->
  <path d="M40 30 Q55 40 70 30 Q85 40 80 55 Q75 70 60 75 Q45 80 40 65 Q35 50 50 40 Q65 30 70 45" stroke="#fff" stroke-width="4" fill="none" opacity="0.9"/>
  <path d="M80 30 Q65 40 50 30 Q35 40 40 55 Q45 70 60 75 Q75 80 80 65 Q85 50 70 40 Q55 30 50 45" stroke="#fff" stroke-width="4" fill="none" opacity="0.9"/>
  <!-- Base pairs -->
  <line x1="45" y1="38" x2="55" y2="42" stroke="#a18cd1" stroke-width="2"/>
  <line x1="50" y1="50" x2="60" y2="48" stroke="#fbc2eb" stroke-width="2"/>
  <line x1="55" y1="60" x2="65" y2="58" stroke="#a18cd1" stroke-width="2"/>
  <line x1="60" y1="70" x2="70" y2="68" stroke="#fbc2eb" stroke-width="2"/>
  <!-- Methylation markers -->
  <circle cx="48" cy="38" r="3" fill="#a18cd1"/>
  <circle cx="62" cy="58" r="3" fill="#fbc2eb"/>
  <text x="60" y="105" font-family="Arial, sans-serif" font-size="8" fill="white" text-anchor="middle">Capítulo 7</text>
</svg>
