<svg xmlns="http://www.w3.org/2000/svg" viewBox="0 0 120 120" width="120" height="120">
  <defs>
    <linearGradient id="grad1" x1="0%" y1="0%" x2="100%" y2="100%">
      <stop offset="0%" style="stop-color:#667eea;stop-opacity:1"/>
      <stop offset="100%" style="stop-color:#764ba2;stop-opacity:1"/>
    </linearGradient>
  </defs>
  <circle cx="60" cy="60" r="55" fill="url(#grad1)"/>
  <!-- Brain outline -->
  <path d="M40 70 Q30 60 35 50 Q30 40 40 35 Q45 25 60 25 Q75 25 80 35 Q90 40 85 50 Q90 60 80 70 Q75 80 60 80 Q45 80 40 70" fill="#fff" opacity="0.9"/>
  <!-- Brain details -->
  <path d="M50 45 Q55 40 65 45 M45 55 Q55 50 70 55 M50 65 Q55 60 65 65" stroke="#667eea" stroke-width="2" fill="none"/>
  <!-- Small neurons -->
  <circle cx="55" cy="48" r="3" fill="#764ba2"/>
  <circle cx="65" cy="55" r="3" fill="#764ba2"/>
  <circle cx="52" cy="62" r="3" fill="#764ba2"/>
  <text x="60" y="105" font-family="Arial, sans-serif" font-size="8" fill="white" text-anchor="middle">Capítulo 1</text>
</svg>
